Coordinates
version=1
nRows=10
nColumns=22
inDegrees=yes

Units are S.I. units (second, meters, Newtons, ...)
If the header above contains a line with 'inDegrees', this indicates whether rotational values are in degrees (yes) or radians (no).

endheader
time	pelvis_tilt	pelvis_list	pelvis_rotation	pelvis_tx	pelvis_ty	pelvis_tz	hip_flexion_r	hip_adduction_r	hip_rotation_r	knee_angle_r	ankle_angle_r	subtalar_angle_r	hip_flexion_l	hip_adduction_l	hip_rotation_l	knee_angle_l	ankle_angle_l	subtalar_angle_l	lumbar_extension	lumbar_bending	lumbar_rotation
      6.09000000	      2.25902577	     -0.92122008	   -108.61457604	      1.07212967	      1.00770927	      0.53955231	     -0.00498769	      9.37066544	     10.86534527	    -18.20070014	     10.50343814	     -8.54183575	     23.00991599	     -6.07069848	      1.54939080	    -27.93934089	      7.06530691	     12.03051875	     -2.41379303	     -2.41544240	      3.55658643
      6.10000000	      2.13927454	     -0.90507887	   -109.77959112	      1.06944461	      1.00737330	      0.54579407	     -0.59184867	      9.37082223	     11.59484902	    -18.04861633	     10.66874297	     -8.21187275	     23.25332777	     -6.16745990	      1.85429316	    -26.80852031	      6.53151856	     12.78729936	     -2.43567120	     -2.23050238	      3.68311349
      6.11000000	      2.03189770	     -0.87797888	   -110.91994354	      1.06678909	      1.00703382	      0.55201421	     -1.13399456	      9.34324058	     12.25734503	    -17.94429980	     10.83427507	     -7.86005882	     23.47599690	     -6.24289844	      2.20650085	    -25.67431024	      5.94353095	     13.64309703	     -2.45061674	     -2.05280056	      3.79625760
      6.12000000	      1.94177132	     -0.84357132	   -112.03485099	      1.06415875	      1.00670974	      0.55822098	     -1.62894817	      9.28525242	     12.85041270	    -17.89295126	     10.99521334	     -7.50530570	     23.67241624	     -6.29184278	      2.61677521	    -24.53076307	      5.30131478	     14.56479424	     -2.45938110	     -1.88801768	      3.89472138
      6.13000000	      1.88080059	     -0.81128534	   -113.13494321	      1.06153609	      1.00642868	      0.56438925	     -2.07075099	      9.18763673	     13.38464074	    -17.91043322	     11.11899125	     -7.17817047	     23.83188047	     -6.30662920	      3.07600909	    -23.36600366	      4.56769427	     15.46539160	     -2.47102068	     -1.75454515	      3.99541534
      6.14000000	      1.81689964	     -0.78158200	   -114.17344899	      1.05894274	      1.00619974	      0.57058708	     -2.50290420	      9.08472633	     13.87044395	    -17.94393619	     11.26420367	     -6.82003532	     23.95749438	     -6.30008321	      3.66189748	    -22.20144804	      3.80882600	     16.45136470	     -2.49316813	     -1.62116524	      4.01506988
      6.15000000	      1.77687048	     -0.76859954	   -115.18891011	      1.05635299	      1.00605928	      0.57678451	     -2.90192146	      8.94297988	     14.28074606	    -18.03440414	     11.34152114	     -6.48385903	     24.03195552	     -6.26347379	      4.29369415	    -21.01597101	      2.93537786	     17.32739693	     -2.53422448	     -1.52412523	      4.04264163
      6.16000000	      1.72510943	     -0.76279761	   -116.15301284	      1.05375161	      1.00599077	      0.58303043	     -3.31525769	      8.80376594	     14.67462987	    -18.11443100	     11.41647670	     -6.11748366	     24.07085391	     -6.22646860	      5.01531331	    -19.84528721	      2.01945527	     18.16728299	     -2.59333658	     -1.42750507	      4.01718114
      6.17000000	      1.68600289	     -0.78202953	   -117.08092137	      1.05113243	      1.00601212	      0.58933174	     -3.73150480	      8.63199601	     15.00159095	    -18.21375926	     11.45026071	     -5.74977715	     24.05699637	     -6.16727077	      5.78061723	    -18.67456788	      1.03347135	     18.86725965	     -2.67611383	     -1.36534737	      3.98122980
      6.18000000	      1.64251423	     -0.81851911	   -117.97049267	      1.04848448	      1.00610709	      0.59569411	     -4.16460598	      8.44811543	     15.29455618	    -18.31103215	     11.45899016	     -5.35328298	     24.00372947	     -6.10733312	      6.57969614	    -17.52551339	      0.02311489	     19.45849611	     -2.78093992	     -1.31763177	      3.92337579
